<svg width="17" height="18" fill="none" xmlns="http://www.w3.org/2000/svg"><path d="M13.666 2.811h-.468v11.494c0 .764-.621 1.385-1.385 1.385h-8.51v.426c0 .488.397.884.884.884h9.478a.884.884 0 00.883-.884V3.696a.883.883 0 00-.882-.885z" fill="#FFCA7B"/><path d="M7.073 15.189h4.738a.884.884 0 00.884-.884V1.884A.884.884 0 0011.811 1H5.497v.292a.86.86 0 01.005.094v2.421c0 .687-.558 1.245-1.244 1.245H1.836a.967.967 0 01-.076-.004h-.308v9.257c0 .488.396.884.884.884h4.737zm.179-3.004h-3.09a.418.418 0 010-.836h3.091a.418.418 0 11-.001.836zm3.09-2.132h-6.18a.418.418 0 010-.836h6.18a.418.418 0 010 .836zm-6.18-3.1h6.18a.418.418 0 010 .836h-6.18a.418.418 0 010-.836z" fill="#FFCA7B"/><path d="M1.837 4.55h2.427A.742.742 0 005 3.816v-2.43a.372.372 0 00-.634-.262L1.573 3.916a.372.372 0 00.264.635z" fill="#FFCA7B"/></svg>