<svg xmlns="http://www.w3.org/2000/svg" xmlns:xlink="http://www.w3.org/1999/xlink"><defs>
<clipPath id="clip0">
<rect width="26" height="26" fill="white"/>
</clipPath>
</defs><symbol id="icon-arrow-right" viewBox="0 0 16 14">
<path fill-rule="evenodd" clip-rule="evenodd" d="M7.76365 0.36361C7.41218 0.715082 7.41218 1.28493 7.76365 1.6364L12.2273 6.10001H0.900049C0.402993 6.10001 4.95911e-05 6.50295 4.95911e-05 7.00001C4.95911e-05 7.49706 0.402993 7.90001 0.900049 7.90001H12.2273L7.76365 12.3636C7.41218 12.7151 7.41218 13.2849 7.76365 13.6364C8.11512 13.9879 8.68497 13.9879 9.03644 13.6364L15.0364 7.6364C15.3879 7.28493 15.3879 6.71508 15.0364 6.36361L9.03644 0.36361C8.68497 0.0121381 8.11512 0.0121381 7.76365 0.36361Z"/>
</symbol><symbol id="icon-cart" viewBox="0 0 26 26">
<g clip-path="url(#clip0)">
<path d="M8.42969 16.8089H22.1916C22.5324 16.8089 22.8313 16.5836 22.9236 16.2563L25.9706 5.59201C26.0361 5.36211 25.9913 5.11514 25.8471 4.92412C25.7027 4.73369 25.4781 4.62122 25.2385 4.62122H6.67119L6.12668 2.17102C6.04932 1.8221 5.73987 1.57434 5.38281 1.57434H0.761719C0.34079 1.57434 0 1.91513 0 2.33606C0 2.75719 0.34079 3.09778 0.761719 3.09778H4.77145L7.52217 15.4757C6.71284 15.8276 6.14453 16.6332 6.14453 17.5706C6.14453 18.8306 7.16968 19.8558 8.42969 19.8558H22.1916C22.6127 19.8558 22.9533 19.5152 22.9533 19.0941C22.9533 18.6731 22.6127 18.3324 22.1916 18.3324H8.42969C8.01015 18.3324 7.66797 17.991 7.66797 17.5706C7.66797 17.1503 8.01015 16.8089 8.42969 16.8089Z" fill="white"/>
<path d="M7.66797 22.141C7.66797 23.4012 8.69312 24.4261 9.95332 24.4261C11.2133 24.4261 12.2385 23.4012 12.2385 22.141C12.2385 20.881 11.2133 19.8558 9.95332 19.8558C8.69312 19.8558 7.66797 20.881 7.66797 22.141Z" fill="white"/>
<path d="M18.3831 22.141C18.3831 23.4012 19.4082 24.4261 20.6682 24.4261C21.9284 24.4261 22.9534 23.4012 22.9534 22.141C22.9534 20.881 21.9284 19.8558 20.6682 19.8558C19.4082 19.8558 18.3831 20.881 18.3831 22.141Z" fill="white"/>
</g>

</symbol><symbol id="icon-file" viewBox="0 0 17 18">
<path d="M13.6662 2.81122H13.1983V14.305C13.1983 15.0685 12.5768 15.6901 11.8132 15.6901H7.07302H3.30359V16.1161C3.30359 16.604 3.69958 17 4.18747 17H8.92598H13.6645C14.1524 17 14.5484 16.604 14.5484 16.1161V3.6951C14.5484 3.20721 14.1541 2.81122 13.6662 2.81122Z" fill="#FFCA7B"/>
<path d="M7.07287 15.1888H11.8114C12.2993 15.1888 12.6953 14.7928 12.6953 14.3049V2.81119V1.88388C12.6953 1.39599 12.2993 1 11.8114 1H7.07287H5.49727V1.2924C5.50059 1.32247 5.50228 1.35422 5.50228 1.38596V3.31245V3.80702C5.50228 4.49373 4.94422 5.0518 4.2575 5.0518H3.76293H1.83644C1.81138 5.0518 1.78465 5.05013 1.75958 5.04845H1.45215V14.3049C1.45215 14.7928 1.84814 15.1888 2.33603 15.1888H3.30512H7.07287ZM7.25165 12.1846H4.16226C3.93168 12.1846 3.74455 11.9975 3.74455 11.7669C3.74455 11.5363 3.93168 11.3492 4.16226 11.3492H7.25333C7.4839 11.3492 7.67104 11.5363 7.67104 11.7669C7.67104 11.9975 7.48223 12.1846 7.25165 12.1846ZM10.3427 10.0526H4.16226C3.93168 10.0526 3.74455 9.8655 3.74455 9.63494C3.74455 9.40434 3.93168 9.21723 4.16226 9.21723H10.3427C10.5733 9.21723 10.7604 9.40434 10.7604 9.63494C10.7604 9.8655 10.5733 10.0526 10.3427 10.0526ZM4.16226 6.95322H10.3427C10.5733 6.95322 10.7604 7.14035 10.7604 7.37093C10.7604 7.6015 10.5733 7.78864 10.3427 7.78864H4.16226C3.93168 7.78864 3.74455 7.6015 3.74455 7.37093C3.74455 7.14035 3.93168 6.95322 4.16226 6.95322Z" fill="#FFCA7B"/>
<path d="M1.83657 4.55054H4.25763C4.2593 4.55054 4.26264 4.55054 4.26431 4.55054C4.66866 4.5472 4.99614 4.21972 4.99948 3.81537C4.99948 3.8137 4.99948 3.81036 4.99948 3.80869V1.38596C4.99948 1.16207 4.81569 1.01337 4.62523 1.01337C4.53333 1.01337 4.44144 1.04678 4.36458 1.12364L1.57258 3.91562C1.33866 4.14954 1.50408 4.55054 1.83657 4.55054Z" fill="#FFCA7B"/>
</symbol><symbol id="icon-instagram" viewBox="0 0 31 30">
<path d="M19.2589 7.8775C18.3364 7.835 18.0589 7.8275 15.7227 7.8275C13.3864 7.8275 13.1102 7.83625 12.1877 7.8775C9.81391 7.98625 8.70891 9.11 8.60016 11.465C8.55891 12.3875 8.54891 12.6637 8.54891 15C8.54891 17.3363 8.55891 17.6125 8.60016 18.5363C8.70891 20.885 9.80891 22.015 12.1877 22.1237C13.1089 22.165 13.3864 22.175 15.7227 22.175C18.0602 22.175 18.3364 22.1662 19.2589 22.1237C21.6327 22.0162 22.7364 20.8888 22.8464 18.5363C22.8877 17.6138 22.8964 17.3363 22.8964 15C22.8964 12.6637 22.8877 12.3875 22.8464 11.465C22.7364 9.11125 21.6302 7.98625 19.2589 7.8775ZM15.7227 19.4937C13.2414 19.4937 11.2289 17.4825 11.2289 15C11.2289 12.5188 13.2414 10.5075 15.7227 10.5075C18.2039 10.5075 20.2164 12.5188 20.2164 15C20.2164 17.4813 18.2039 19.4937 15.7227 19.4937ZM20.3939 11.38C19.8139 11.38 19.3439 10.91 19.3439 10.33C19.3439 9.75 19.8139 9.28 20.3939 9.28C20.9739 9.28 21.4439 9.75 21.4439 10.33C21.4439 10.9087 20.9739 11.38 20.3939 11.38ZM18.6389 15C18.6389 16.6112 17.3327 17.9163 15.7227 17.9163C14.1127 17.9163 12.8064 16.6112 12.8064 15C12.8064 13.3888 14.1127 12.0837 15.7227 12.0837C17.3327 12.0837 18.6389 13.3888 18.6389 15ZM15.7227 0C7.43891 0 0.722656 6.71625 0.722656 15C0.722656 23.2838 7.43891 30 15.7227 30C24.0064 30 30.7227 23.2838 30.7227 15C30.7227 6.71625 24.0064 0 15.7227 0ZM24.4202 18.6075C24.2764 21.7887 22.5052 23.5513 19.3314 23.6975C18.3977 23.74 18.0989 23.75 15.7227 23.75C13.3464 23.75 13.0489 23.74 12.1152 23.6975C8.93516 23.5513 7.17141 21.7862 7.02516 18.6075C6.98266 17.675 6.97266 17.3762 6.97266 15C6.97266 12.6237 6.98266 12.3263 7.02516 11.3925C7.17141 8.2125 8.93641 6.44875 12.1152 6.30375C13.0489 6.26 13.3464 6.25 15.7227 6.25C18.0989 6.25 18.3977 6.26 19.3314 6.30375C22.5127 6.45 24.2777 8.21875 24.4202 11.3925C24.4627 12.3263 24.4727 12.6237 24.4727 15C24.4727 17.3762 24.4627 17.675 24.4202 18.6075Z"/>
</symbol><symbol id="icon-phone" viewBox="0 0 18 18">
<path fill-rule="evenodd" clip-rule="evenodd" d="M8.02339 5.89537C8.48744 5.30347 8.65385 4.67965 8.12901 4.12901C6.95124 2.56918 6.15915 1.60458 5.66232 1.14005C4.71777 0.256923 3.16398 0.37638 2.34593 1.1393C1.90655 1.54906 1.7578 1.68978 1.30665 2.1235C-1.20631 4.50326 0.326225 9.53399 4.40026 13.3938C8.47337 17.2527 13.788 18.704 16.3063 16.3192C16.7226 15.9394 17.0751 15.6056 17.353 15.3275C18.1547 14.5255 18.2764 13.1197 17.3478 12.2065C16.8717 11.7382 15.8998 11.0247 14.1825 9.86201C13.6565 9.41686 13.0328 9.51334 12.4611 9.86838C12.186 10.0392 11.9859 10.2119 11.6079 10.57L10.9216 11.2199C10.8312 11.3055 9.60379 10.7237 8.41229 9.59489C7.22015 8.46543 6.60587 7.30362 6.69584 7.21847L7.38263 6.56808C7.50254 6.45448 7.55986 6.39948 7.63338 6.32634C7.78655 6.17398 7.91337 6.03571 8.02339 5.89537ZM12.1875 12.4188L12.8739 11.7688C13.0819 11.5717 13.2167 11.4505 13.3264 11.367C14.8308 12.3896 15.7021 13.0325 16.058 13.3825C16.2717 13.5927 16.2385 13.9761 16.0527 14.1619C15.7957 14.4191 15.4617 14.7353 15.0519 15.1095C13.4235 16.6514 9.13336 15.4798 5.6664 12.1952C2.19835 8.90949 0.961178 4.84833 2.57726 3.31789C3.02659 2.88595 3.16895 2.75128 3.60206 2.34736C3.76445 2.19591 4.20679 2.1619 4.40434 2.3466C4.78685 2.70425 5.49641 3.56416 6.5402 4.94034C6.48617 5.00384 6.41868 5.07559 6.33655 5.15729C6.27627 5.21726 6.22604 5.26544 6.11625 5.36946L5.43015 6.01921C4.26294 7.12386 5.25697 9.00393 7.14592 10.7935C9.03357 12.5819 11.0207 13.5238 12.1875 12.4188Z" fill="white"/>
</symbol><symbol id="icon-search" viewBox="0 0 16 16">
<path fill-rule="evenodd" clip-rule="evenodd" d="M12 6.5C12 9.53757 9.53757 12 6.5 12C3.46243 12 1 9.53757 1 6.5C1 3.46243 3.46243 1 6.5 1C9.53757 1 12 3.46243 12 6.5ZM10.5691 11.5691C9.45527 12.4643 8.0402 13 6.5 13C2.91015 13 0 10.0899 0 6.5C0 2.91015 2.91015 0 6.5 0C10.0899 0 13 2.91015 13 6.5C13 8.18955 12.3554 9.72854 11.2987 10.8844L15.3536 14.9393C15.5488 15.1346 15.5488 15.4512 15.3536 15.6464C15.1583 15.8417 14.8417 15.8417 14.6464 15.6464L10.5691 11.5691Z"/>
</symbol><symbol id="icon-user" viewBox="0 0 25 25">
<path fill-rule="evenodd" clip-rule="evenodd" d="M12.0576 13.229C7.98278 13.229 4.61188 16.2879 4.11951 20.231C4.05108 20.779 4.50536 21.229 5.05765 21.229C5.60993 21.229 6.04891 20.7779 6.14028 20.2332C6.61603 17.3972 9.08858 15.229 12.0576 15.229C15.0267 15.229 17.4993 17.3972 17.975 20.2332C18.0664 20.7779 18.5054 21.229 19.0576 21.229C19.6099 21.229 20.0642 20.779 19.9958 20.231C19.5034 16.2879 16.1325 13.229 12.0576 13.229Z" fill="#34AADD"/>
<path d="M12.0576 11.229C14.2636 11.229 16.0576 9.435 16.0576 7.229C16.0576 5.023 14.2636 3.229 12.0576 3.229C9.85162 3.229 8.05762 5.023 8.05762 7.229C8.05762 9.435 9.85162 11.229 12.0576 11.229" stroke="#34AADD" stroke-width="2"/>
</symbol><symbol id="icon-youtube" viewBox="0 0 31 30">
<path d="M15.7227 0C7.43891 0 0.722656 6.71625 0.722656 15C0.722656 23.2838 7.43891 30 15.7227 30C24.0064 30 30.7227 23.2838 30.7227 15C30.7227 6.71625 24.0064 0 15.7227 0ZM21.2739 21.115C18.6464 21.295 12.7939 21.295 10.1702 21.115C7.32516 20.92 6.99391 19.5275 6.97266 15C6.99391 10.4637 7.32891 9.08 10.1702 8.885C12.7939 8.705 18.6477 8.705 21.2739 8.885C24.1202 9.08 24.4502 10.4725 24.4727 15C24.4502 19.5362 24.1164 20.92 21.2739 21.115ZM13.2227 12.0725L19.3689 14.995L13.2227 17.9275V12.0725Z"/>
</symbol></svg>