<svg width="17" height="18" viewBox="0 0 17 18" fill="none" xmlns="http://www.w3.org/2000/svg">
<path d="M13.6662 2.81122H13.1983V14.305C13.1983 15.0685 12.5768 15.6901 11.8132 15.6901H7.07302H3.30359V16.1161C3.30359 16.604 3.69958 17 4.18747 17H8.92598H13.6645C14.1524 17 14.5484 16.604 14.5484 16.1161V3.6951C14.5484 3.20721 14.1541 2.81122 13.6662 2.81122Z" fill="#FFCA7B"/>
<path d="M7.07287 15.1888H11.8114C12.2993 15.1888 12.6953 14.7928 12.6953 14.3049V2.81119V1.88388C12.6953 1.39599 12.2993 1 11.8114 1H7.07287H5.49727V1.2924C5.50059 1.32247 5.50228 1.35422 5.50228 1.38596V3.31245V3.80702C5.50228 4.49373 4.94422 5.0518 4.2575 5.0518H3.76293H1.83644C1.81138 5.0518 1.78465 5.05013 1.75958 5.04845H1.45215V14.3049C1.45215 14.7928 1.84814 15.1888 2.33603 15.1888H3.30512H7.07287ZM7.25165 12.1846H4.16226C3.93168 12.1846 3.74455 11.9975 3.74455 11.7669C3.74455 11.5363 3.93168 11.3492 4.16226 11.3492H7.25333C7.4839 11.3492 7.67104 11.5363 7.67104 11.7669C7.67104 11.9975 7.48223 12.1846 7.25165 12.1846ZM10.3427 10.0526H4.16226C3.93168 10.0526 3.74455 9.8655 3.74455 9.63494C3.74455 9.40434 3.93168 9.21723 4.16226 9.21723H10.3427C10.5733 9.21723 10.7604 9.40434 10.7604 9.63494C10.7604 9.8655 10.5733 10.0526 10.3427 10.0526ZM4.16226 6.95322H10.3427C10.5733 6.95322 10.7604 7.14035 10.7604 7.37093C10.7604 7.6015 10.5733 7.78864 10.3427 7.78864H4.16226C3.93168 7.78864 3.74455 7.6015 3.74455 7.37093C3.74455 7.14035 3.93168 6.95322 4.16226 6.95322Z" fill="#FFCA7B"/>
<path d="M1.83657 4.55054H4.25763C4.2593 4.55054 4.26264 4.55054 4.26431 4.55054C4.66866 4.5472 4.99614 4.21972 4.99948 3.81537C4.99948 3.8137 4.99948 3.81036 4.99948 3.80869V1.38596C4.99948 1.16207 4.81569 1.01337 4.62523 1.01337C4.53333 1.01337 4.44144 1.04678 4.36458 1.12364L1.57258 3.91562C1.33866 4.14954 1.50408 4.55054 1.83657 4.55054Z" fill="#FFCA7B"/>
</svg>
